<svg xmlns="http://www.w3.org/2000/svg" xmlns:xlink="http://www.w3.org/1999/xlink" width="1417" height="460" viewBox="0 0 1417 460">
  <defs>
    <clipPath id="clip-path">
      <rect id="Rectangle_940" data-name="Rectangle 940" width="1319.57" height="345.7" fill="none" stroke="#000" stroke-linecap="round" stroke-linejoin="round" stroke-miterlimit="10" stroke-width="1"/>
    </clipPath>
  </defs>
  <g id="Group_797" data-name="Group 797" transform="translate(-2298 9325)">
    <g id="Rectangle_942" data-name="Rectangle 942" transform="translate(2300 -9323)" fill="#fff" stroke="#e2e2e2" stroke-width="2">
      <rect width="1413" height="456" rx="27" stroke="none"/>
      <rect x="-1" y="-1" width="1415" height="458" rx="28" fill="none"/>
    </g>
    <g id="Group_796" data-name="Group 796" transform="translate(-160.527 26.339)">
      <g id="Group_795" data-name="Group 795" transform="translate(2507.241 -9274.34)" clip-path="url(#clip-path)">
        <path id="Path_220" data-name="Path 220" d="M50.31,305.26H1369.88" transform="translate(-50.31 -27.66)" fill="none" stroke="#ebebeb" stroke-linejoin="round" stroke-miterlimit="10" stroke-width="0.53"/>
        <path id="Path_221" data-name="Path 221" d="M50.31,200.51H1369.88" transform="translate(-50.31 -27.66)" fill="none" stroke="#ebebeb" stroke-linejoin="round" stroke-miterlimit="10" stroke-width="0.53"/>
        <path id="Path_222" data-name="Path 222" d="M50.31,95.75H1369.88" transform="translate(-50.31 -27.66)" fill="none" stroke="#ebebeb" stroke-linejoin="round" stroke-miterlimit="10" stroke-width="0.53"/>
        <path id="Path_223" data-name="Path 223" d="M84.24,373.36V27.66" transform="translate(-16.832 -27.66)" fill="none" stroke="#ebebeb" stroke-linejoin="round" stroke-miterlimit="10" stroke-width="0.53"/>
        <path id="Path_224" data-name="Path 224" d="M159.71,373.36V27.66" transform="translate(57.632 -27.66)" fill="none" stroke="#ebebeb" stroke-linejoin="round" stroke-miterlimit="10" stroke-width="0.53"/>
        <path id="Path_225" data-name="Path 225" d="M235.61,373.36V27.66" transform="translate(132.521 -27.66)" fill="none" stroke="#ebebeb" stroke-linejoin="round" stroke-miterlimit="10" stroke-width="0.53"/>
        <path id="Path_226" data-name="Path 226" d="M311.92,373.36V27.66" transform="translate(207.814 -27.66)" fill="none" stroke="#ebebeb" stroke-linejoin="round" stroke-miterlimit="10" stroke-width="0.53"/>
        <path id="Path_227" data-name="Path 227" d="M387.81,373.36V27.66" transform="translate(282.693 -27.66)" fill="none" stroke="#ebebeb" stroke-linejoin="round" stroke-miterlimit="10" stroke-width="0.53"/>
        <path id="Path_228" data-name="Path 228" d="M462.87,373.36V27.66" transform="translate(356.753 -27.66)" fill="none" stroke="#ebebeb" stroke-linejoin="round" stroke-miterlimit="10" stroke-width="0.53"/>
        <path id="Path_229" data-name="Path 229" d="M538.35,373.36V27.66" transform="translate(431.227 -27.66)" fill="none" stroke="#ebebeb" stroke-linejoin="round" stroke-miterlimit="10" stroke-width="0.53"/>
        <path id="Path_230" data-name="Path 230" d="M614.66,373.36V27.66" transform="translate(506.521 -27.66)" fill="none" stroke="#ebebeb" stroke-linejoin="round" stroke-miterlimit="10" stroke-width="0.53"/>
        <path id="Path_231" data-name="Path 231" d="M690.55,373.36V27.66" transform="translate(581.4 -27.66)" fill="none" stroke="#ebebeb" stroke-linejoin="round" stroke-miterlimit="10" stroke-width="0.53"/>
        <path id="Path_232" data-name="Path 232" d="M50.31,357.64H1369.88" transform="translate(-50.31 -27.66)" fill="none" stroke="#ebebeb" stroke-linejoin="round" stroke-miterlimit="10" stroke-width="1.07"/>
        <path id="Path_233" data-name="Path 233" d="M50.31,252.89H1369.88" transform="translate(-50.31 -27.66)" fill="none" stroke="#ebebeb" stroke-linejoin="round" stroke-miterlimit="10" stroke-width="1.07"/>
        <path id="Path_234" data-name="Path 234" d="M50.31,148.13H1369.88" transform="translate(-50.31 -27.66)" fill="none" stroke="#ebebeb" stroke-linejoin="round" stroke-miterlimit="10" stroke-width="1.07"/>
        <path id="Path_235" data-name="Path 235" d="M50.31,43.37H1369.88" transform="translate(-50.31 -27.66)" fill="none" stroke="#ebebeb" stroke-linejoin="round" stroke-miterlimit="10" stroke-width="1.07"/>
        <path id="Path_236" data-name="Path 236" d="M121.98,373.36V27.66" transform="translate(20.405 -27.66)" fill="none" stroke="#ebebeb" stroke-linejoin="round" stroke-miterlimit="10" stroke-width="1.07"/>
        <path id="Path_237" data-name="Path 237" d="M197.45,373.36V27.66" transform="translate(94.87 -27.66)" fill="none" stroke="#ebebeb" stroke-linejoin="round" stroke-miterlimit="10" stroke-width="1.07"/>
        <path id="Path_238" data-name="Path 238" d="M273.76,373.36V27.66" transform="translate(170.163 -27.66)" fill="none" stroke="#ebebeb" stroke-linejoin="round" stroke-miterlimit="10" stroke-width="1.07"/>
        <path id="Path_239" data-name="Path 239" d="M350.07,373.36V27.66" transform="translate(245.456 -27.66)" fill="none" stroke="#ebebeb" stroke-linejoin="round" stroke-miterlimit="10" stroke-width="1.07"/>
        <path id="Path_240" data-name="Path 240" d="M425.55,373.36V27.66" transform="translate(319.93 -27.66)" fill="none" stroke="#ebebeb" stroke-linejoin="round" stroke-miterlimit="10" stroke-width="1.07"/>
        <path id="Path_241" data-name="Path 241" d="M500.2,373.36V27.66" transform="translate(393.586 -27.66)" fill="none" stroke="#ebebeb" stroke-linejoin="round" stroke-miterlimit="10" stroke-width="1.07"/>
        <path id="Path_242" data-name="Path 242" d="M576.5,373.36V27.66" transform="translate(468.869 -27.66)" fill="none" stroke="#ebebeb" stroke-linejoin="round" stroke-miterlimit="10" stroke-width="1.07"/>
        <path id="Path_243" data-name="Path 243" d="M652.81,373.36V27.66" transform="translate(544.162 -27.66)" fill="none" stroke="#ebebeb" stroke-linejoin="round" stroke-miterlimit="10" stroke-width="1.07"/>
        <path id="Path_244" data-name="Path 244" d="M80.5,347.17l.556-1.31,12.079-28.81.556-1.31.556,1.16,8.781,18.63.556,1.16.536,3.49.556,3.49.556,3.5.536-11.64,3.854-81.48.536-11.64.556.33L282.644,346.83l.536.34H299.67l.536-2.33,3.854-16.3.556-2.32.536.26,41.76,20.42.536.27H449.624l.536-.59,8.8-9.31.536-.58h16.489l.536.1L533.1,347.07l.556.1h29.661l.536-.39,58.229-41.13.556-.39.536,10.48.556,10.48.556,10.47.536,1.16,3.854,8.15.536,1.17.556-.12,48.336-10.24.556-.12.536.29,18.675,9.9.556.29h4.947l.556-.88,5.483-8.73.556-.87.536.87,5.5,8.73.536.88h9.894l.556-.88,5.483-8.73.556-.87.536,3.49.556,3.49.556,3.5h1.649l.536-6.99.556-6.98.556-6.98.536-6.99.556-6.98.556-6.99.536,13.97.556,13.97.556,13.97h1.629l.556-20.95.556-20.96.536-20.95.556,13.97.556,13.97.536,13.97.556,1.74,2.205,6.98.536,1.75.556-94.28.556-94.28.536-94.28.556,69.84.556,69.83.536,69.84.556,24.44.536,24.45.556,24.44.556-3.49.536-3.49.556-3.49.556-24.45.536-24.44.556-24.44.556,6.98.536,6.98.556,6.99.556,6.98.536,6.98.556,6.99H762.7l.536,3.49.556,3.49.556,3.49.536-3.49.556-3.49.556-3.49.536,6.98.556,6.99.556,6.98.536-3.49.556-3.49.556-3.5.536-3.49.556-3.49.556-3.49.536,17.46.556,17.46.536,17.46.556-13.97.556-13.97.536-13.97.556,10.48.556,10.48.536,10.47h3.3l.556-6.98.556-6.99.536-6.98.556-13.97.536-13.97.556-13.96.556,24.44.536,24.44.556,24.45h3.3l.556-10.48.536-10.47.556-10.48.556,3.49.536,3.49.556,3.5.536,1.74,5.5,17.46.556,1.75h1.649l.536-3.5.556-3.49.556-3.49.536-.87,5.5-8.73.536-.87h3.3l.556,2.32,3.834,16.3.556,2.33h3.3l.556-3.5.536-3.49.556-3.49.536-3.49.556-3.49.556-3.49.536-.88,5.5-8.73.556-.87.536.7,7.152,9.08.536.7H838.5l.556,1.74,2.185,6.98.556,1.75.556,3.49.536,3.49.556,3.5h3.3l.556-6.99.536-6.98.556-6.98.536,1.74,2.205,6.98.556,1.75.536-3.49.556-3.49.556-3.49.536,6.98.556,6.98.556,6.99h1.649l.536-2.33,3.854-16.3.536-2.32h3.3l.556-5.24,2.205-20.95.536-5.24.556,5.82,3.834,40.74.556,5.82.556-1.75,2.185-6.98.556-1.75h1.649l.536.87,5.5,8.73.556.88.536-2.33,3.854-16.3.536-2.32.556,6.98.556,6.98.536,6.99h14.841l.556-4.19,7.132-54.48.556-4.19.536,13.97.556,13.97.556,13.97.536-10.48.556-10.48.536-10.47.556,17.46.556,17.46.536,17.46.556-6.99.556-6.98.536-6.98.556-13.97L922,298.28l.536-13.97.556,20.95.556,20.96.536,20.95.556-10.48.556-10.47.536-10.48.556,3.49,2.185,13.97.556,3.49.556,3.49.536,3.49.556,3.5.556-3.5.536-3.49.556-3.49.556,3.49.536,3.49.556,3.5h21.416l.556-1.75,2.185-6.98.556-1.75h4.947l.556.7,7.132,9.08.556.7h39.535l.556-1.75,2.185-6.98.556-1.75.556.7,7.132,9.08.556.7.536-10.48.556-10.47.556-10.48.536,10.48.556,10.47.556,10.48h23.065l.556-1.17,3.834-8.15.556-1.16.536,3.49.556,3.49.556,3.5h14.82l.556-24.45.536-24.44.556-24.44.556,6.98,3.834,48.89.556,6.98.556,3.49.536,3.49.556,3.5.556-1.75,5.483-17.46.556-1.74.536,3.49.557,3.49.556,3.49h3.278l.556,1.75,2.205,6.98.536,1.75h4.947l.556-12.23,2.185-48.88.556-12.22.556,10.47.536,10.48.556,10.47.556,3.5.536,3.49.556,3.49.556,6.98.536,6.99.556,6.98.556-1.16,3.834-8.15.556-1.16.537,2.32,3.854,16.3.556,2.33.536-3.5.556-3.49.556-3.49h3.278l.556,1.16,3.854,8.15.536,1.17h8.245l.556-6.99.536-6.98.556-6.98.556,3.49.536,3.49.556,3.49.536,3.49.556,3.49.556,3.5.536-3.5.556-3.49.556-3.49.536,1.75,2.205,6.98.556,1.75.536-.59,8.8-9.31.536-.58.556,3.49.556,3.49.536,3.5h8.245l.556-1.17,3.834-8.15.556-1.16h4.947l.536,3.49.556,3.49.556,3.5h21.416l.536-3.5.556-3.49.556-3.49.536.87,5.5,8.73.536.88.556-3.5.556-3.49.536-3.49.556.87,5.5,8.73.537.88h3.3l.556-3.5.536-3.49.556-3.49h1.649l.556,3.49.536,3.49.556,3.5.556-.44,12.079-9.6.536-.44.556,1.75,2.205,6.98.537,1.75h4.947l.556-6.99.536-6.98.556-6.98.556,6.98.536,6.98.556,6.99.557-1.75,2.185-6.98.556-1.75h1.649l.556-3.49.536-3.49.556-3.49.536-45.4.556-45.39.556-45.4.536,41.9.556,41.91.556,41.9.536,6.98.556,6.99.556,6.98h1.649l.536-6.98.556-6.99.557-6.98.536,3.49.557,3.49.536,3.5h4.947l.556,3.49.556,3.49.536,3.49h1.649l.556-13.97.556-13.96.536-13.97.556,10.47.536,10.48.556,10.48.556,6.98.536,6.98.556,6.99.557-24.45.536-24.44.556-24.44.556,17.46.536,17.46.556,17.46v31.42H80.5Z" transform="translate(-20.522 -27.66)" fill="rgba(27,94,32,0.5)"/>
        <path id="Path_245" data-name="Path 245" d="M80.5,347.17l.556-1.31,12.079-28.81.556-1.31.556,1.16,8.781,18.63.556,1.16.536,3.49.556,3.49.556,3.5.536-11.64,3.854-81.48.536-11.64.556.33L282.644,346.83l.536.34H299.67l.536-2.33,3.854-16.3.556-2.32.536.26,41.76,20.42.536.27H449.624l.536-.59,8.8-9.31.536-.58h16.489l.536.1L533.1,347.07l.556.1h29.661l.536-.39,58.229-41.13.556-.39.536,10.48.556,10.48.556,10.47.536,1.16,3.854,8.15.536,1.17.556-.12,48.336-10.24.556-.12.536.29,18.675,9.9.556.29h4.947l.556-.88,5.483-8.73.556-.87.536.87,5.5,8.73.536.88h9.894l.556-.88,5.483-8.73.556-.87.536,3.49.556,3.49.556,3.5h1.649l.536-6.99.556-6.98.556-6.98.536-6.99.556-6.98.556-6.99.536,13.97.556,13.97.556,13.97h1.629l.556-20.95.556-20.96.536-20.95.556,13.97.556,13.97.536,13.97.556,1.74,2.205,6.98.536,1.75.556-94.28.556-94.28.536-94.28.556,69.84.556,69.83.536,69.84.556,24.44.536,24.45.556,24.44.556-3.49.536-3.49.556-3.49.556-24.45.536-24.44.556-24.44.556,6.98.536,6.98.556,6.99.556,6.98.536,6.98.556,6.99H762.7l.536,3.49.556,3.49.556,3.49.536-3.49.556-3.49.556-3.49.536,6.98.556,6.99.556,6.98.536-3.49.556-3.49.556-3.5.536-3.49.556-3.49.556-3.49.536,17.46.556,17.46.536,17.46.556-13.97.556-13.97.536-13.97.556,10.48.556,10.48.536,10.47h3.3l.556-6.98.556-6.99.536-6.98.556-13.97.536-13.97.556-13.96.556,24.44.536,24.44.556,24.45h3.3l.556-10.48.536-10.47.556-10.48.556,3.49.536,3.49.556,3.5.536,1.74,5.5,17.46.556,1.75h1.649l.536-3.5.556-3.49.556-3.49.536-.87,5.5-8.73.536-.87h3.3l.556,2.32,3.834,16.3.556,2.33h3.3l.556-3.5.536-3.49.556-3.49.536-3.49.556-3.49.556-3.49.536-.88,5.5-8.73.556-.87.536.7,7.152,9.08.536.7H838.5l.556,1.74,2.185,6.98.556,1.75.556,3.49.536,3.49.556,3.5h3.3l.556-6.99.536-6.98.556-6.98.536,1.74,2.205,6.98.556,1.75.536-3.49.556-3.49.556-3.49.536,6.98.556,6.98.556,6.99h1.649l.536-2.33,3.854-16.3.536-2.32h3.3l.556-5.24,2.205-20.95.536-5.24.556,5.82,3.834,40.74.556,5.82.556-1.75,2.185-6.98.556-1.75h1.649l.536.87,5.5,8.73.556.88.536-2.33,3.854-16.3.536-2.32.556,6.98.556,6.98.536,6.99h14.841l.556-4.19,7.132-54.48.556-4.19.536,13.97.556,13.97.556,13.97.536-10.48.556-10.48.536-10.47.556,17.46.556,17.46.536,17.46.556-6.99.556-6.98.536-6.98.556-13.97L922,298.28l.536-13.97.556,20.95.556,20.96.536,20.95.556-10.48.556-10.47.536-10.48.556,3.49,2.185,13.97.556,3.49.556,3.49.536,3.49.556,3.5.556-3.5.536-3.49.556-3.49.556,3.49.536,3.49.556,3.5h21.416l.556-1.75,2.185-6.98.556-1.75h4.947l.556.7,7.132,9.08.556.7h39.535l.556-1.75,2.185-6.98.556-1.75.556.7,7.132,9.08.556.7.536-10.48.556-10.47.556-10.48.536,10.48.556,10.47.556,10.48h23.065l.556-1.17,3.834-8.15.556-1.16.536,3.49.556,3.49.556,3.5h14.82l.556-24.45.536-24.44.556-24.44.556,6.98,3.834,48.89.556,6.98.556,3.49.536,3.49.556,3.5.556-1.75,5.483-17.46.556-1.74.536,3.49.557,3.49.556,3.49h3.278l.556,1.75,2.205,6.98.536,1.75h4.947l.556-12.23,2.185-48.88.556-12.22.556,10.47.536,10.48.556,10.47.556,3.5.536,3.49.556,3.49.556,6.98.536,6.99.556,6.98.556-1.16,3.834-8.15.556-1.16.537,2.32,3.854,16.3.556,2.33.536-3.5.556-3.49.556-3.49h3.278l.556,1.16,3.854,8.15.536,1.17h8.245l.556-6.99.536-6.98.556-6.98.556,3.49.536,3.49.556,3.49.536,3.49.556,3.49.556,3.5.536-3.5.556-3.49.556-3.49.536,1.75,2.205,6.98.556,1.75.536-.59,8.8-9.31.536-.58.556,3.49.556,3.49.536,3.5h8.245l.556-1.17,3.834-8.15.556-1.16h4.947l.536,3.49.556,3.49.556,3.5h21.416l.536-3.5.556-3.49.556-3.49.536.87,5.5,8.73.536.88.556-3.5.556-3.49.536-3.49.556.87,5.5,8.73.537.88h3.3l.556-3.5.536-3.49.556-3.49h1.649l.556,3.49.536,3.49.556,3.5.556-.44,12.079-9.6.536-.44.556,1.75,2.205,6.98.537,1.75h4.947l.556-6.99.536-6.98.556-6.98.556,6.98.536,6.98.556,6.99.557-1.75,2.185-6.98.556-1.75h1.649l.556-3.49.536-3.49.556-3.49.536-45.4.556-45.39.556-45.4.536,41.9.556,41.91.556,41.9.536,6.98.556,6.99.556,6.98h1.649l.536-6.98.556-6.99.557-6.98.536,3.49.557,3.49.536,3.5h4.947l.556,3.49.556,3.49.536,3.49h1.649l.556-13.97.556-13.96.536-13.97.556,10.47.536,10.48.556,10.48.556,6.98.536,6.98.556,6.99.557-24.45.536-24.44.556-24.44.556,17.46.536,17.46.556,17.46" transform="translate(-20.522 -27.66)" fill="none"/>
        <path id="Path_246" data-name="Path 246" d="M80.5,347.17l13.192-31.43,9.894,20.95,1.649,10.48,4.927-104.76,173.02,104.76H299.67l4.947-20.95,42.833,20.95H449.624l9.874-10.48h16.489l57.673,10.48h29.661l59.322-41.91,1.649,31.43,4.927,10.48,49.448-10.48,19.768,10.48h4.947l6.6-10.48,6.576,10.48h9.894l6.6-10.48,1.649,10.48h1.649l1.649-20.95,1.649-20.96,1.649,41.91h1.629l1.649-62.86,1.649,41.91,3.3,10.47,1.649-282.84,1.649,209.51,1.649,73.33,1.649-10.47,1.649-73.33,1.649,20.95,1.649,20.95H762.7l1.649,10.47L766,294.79l1.649,20.95,1.649-10.48,1.649-10.47,1.629,52.38,1.649-41.91,1.649,31.43h3.3l1.649-20.95,1.649-41.9,1.649,73.33h3.3l1.649-31.43,1.649,10.48,6.6,20.95h1.649l1.649-10.48,6.576-10.47h3.3l4.947,20.95h3.3l1.649-10.48,1.649-10.47,6.6-10.48,8.225,10.48H838.5l3.3,10.47,1.649,10.48h3.3l1.649-20.95,3.3,10.47,1.649-10.47,1.649,20.95h1.649l4.927-20.95h3.3l3.3-31.43,4.947,52.38,3.3-10.48h1.649l6.6,10.48,4.927-20.95,1.649,20.95h14.841l8.245-62.86,1.649,41.91,1.629-31.43,1.649,52.38,1.649-20.95,1.649-41.91,1.649,62.86,1.649-31.43,3.3,20.95,1.649,10.48,1.649-10.48,1.649,10.48h21.416l3.3-10.48h4.947l8.245,10.48h39.535l3.3-10.48,8.245,10.48,1.649-31.43,1.649,31.43h23.065l4.947-10.48,1.649,10.48h14.82l1.649-73.33,4.947,62.85,1.649,10.48,6.6-20.95,1.649,10.47h3.278l3.3,10.48h4.947l3.3-73.33,1.649,31.42,1.649,10.48,1.649,20.95,4.947-10.47,4.947,20.95,1.649-10.48h3.278l4.947,10.48h8.245l1.649-20.95,1.649,10.47,1.649,10.48,1.649-10.48,3.3,10.48,9.874-10.48,1.649,10.48h8.245l4.947-10.48h4.947l1.649,10.48h21.416l1.649-10.48,6.576,10.48,1.649-10.48,6.6,10.48h3.3l1.649-10.48h1.649l1.649,10.48,13.172-10.48,3.3,10.48h4.947l1.649-20.95,1.649,20.95,3.3-10.48h1.649l1.649-10.47,1.649-136.19,1.649,125.71,1.649,20.95h1.649L1262,315.74l1.629,10.48h4.947l1.649,10.47h1.649l1.649-41.9,1.649,31.43,1.649,20.95,1.649-73.33,1.649,52.38" transform="translate(-20.522 -27.66)" fill="none" stroke="#004d40" stroke-linejoin="round" stroke-miterlimit="10" stroke-width="2.13"/>
      </g>
    </g>
  </g>
</svg>
