<svg id="Group_66" data-name="Group 66" xmlns="http://www.w3.org/2000/svg" width="23.228" height="23.228" viewBox="0 0 23.228 23.228">
  <g id="Group_65" data-name="Group 65" transform="translate(2.749 3.421)">
    <path id="Path_72" data-name="Path 72" d="M23.411,7.481h0a.415.415,0,0,0-.416-.411H6.1a.415.415,0,0,0-.416.411h0V8.967h0a.419.419,0,0,0,.416.416h16.9a.419.419,0,0,0,.416-.416h0V7.481Z" transform="translate(-5.68 -7.07)" fill="#bcd7ff"/>
    <path id="Path_73" data-name="Path 73" d="M23.062,14.24H8.186a.412.412,0,0,0-.416.411v0h0v8.628a.942.942,0,0,0,.963.924h6.315v1.248a.948.948,0,1,0,1.152,0V24.209h6.315a.942.942,0,0,0,.963-.924V14.646h0A.414.414,0,0,0,23.062,14.24Z" transform="translate(-6.759 -10.77)" fill="#bcd7ff"/>
  </g>
  <path id="Path_74" data-name="Path 74" d="M0,0H23.228V23.228H0Z" fill="none"/>
</svg>
