<svg id="Group_68" data-name="Group 68" xmlns="http://www.w3.org/2000/svg" width="21.842" height="21.842" viewBox="0 0 21.842 21.842">
  <path id="Path_77" data-name="Path 77" d="M22.651,11.89V20.2A2.045,2.045,0,0,1,20.6,22.246H11.048A2.045,2.045,0,0,1,9,20.2V6.548A2.045,2.045,0,0,1,11.048,4.5h4.214a1.372,1.372,0,0,1,.965.4l6.025,6.025A1.372,1.372,0,0,1,22.651,11.89Z" transform="translate(-4.905 -2.452)" fill="none" stroke="#bcd7ff" stroke-linejoin="round" stroke-width="1.7"/>
  <path id="Path_78" data-name="Path 78" d="M24,5.25v5.119a1.363,1.363,0,0,0,1.365,1.365h5.119" transform="translate(-13.079 -2.861)" fill="none" stroke="#bcd7ff" stroke-linecap="round" stroke-linejoin="round" stroke-width="1.7"/>
  <path id="Path_79" data-name="Path 79" d="M0,0H21.842V21.842H0Z" fill="none"/>
</svg>
